<svg data-name="Logo" xmlns="http://www.w3.org/2000/svg" preserveAspectRatio="xMidYMid meet" viewBox="0 0 246.45 64.59"><defs><style>.cls-logo-1{fill:#7ab800;}.cls-logo-2{fill:#636466;}.cls-logo-3{fill:#89c649;}</style></defs><title>landis-logo-with-tagline</title><polygon class="cls-logo-1" points="164.48 20.46 164.48 7.75 159.93 7.75 159.93 20.46 146.86 20.46 146.86 25.02 159.93 25.02 159.93 38.09 164.48 38.09 164.48 25.02 177.2 25.02 177.2 20.46 164.48 20.46"></polygon><path class="cls-logo-2" d="M117,70.13c-1.46-1.51-3.7-2.19-6.8-2.19h-9.59v5.51h9.21c3.06,0,3.65.76,3.69,2.85v2.15h-6.09c-3.45,0-6,.67-7.73,2.07s-2.53,3.53-2.53,6.34c0,3.22.81,5.26,2.37,6.48s3.8,1.59,6.64,1.59c.64,0,1.3,0,2-.05A7.18,7.18,0,0,0,113.93,92v2.46h5.12V77.11c0-3.17-.63-5.46-2.09-7M113.52,83.6v1.29c0,1.65-1.09,4.65-5.7,4.7h-.61c-3.46,0-4.58-.27-4.64-2.79,0,0,0-.07,0-.1,0-2.18,1-3.07,4.5-3.1Z" transform="translate(-74.34 -56.55)"></path><path class="cls-logo-2" d="M144.25,69.39a10.62,10.62,0,0,0-6.61-1.76l-1.06,0a6.83,6.83,0,0,0-6.11,3.26V68h-5.21V94.41h5.51V79.14c0-5.86,4.28-5.78,5.73-5.81h.21c2.21,0,3.21.3,3.95,1s1.1,1.93,1.1,3.84v16.2h5.42V77.06c0-3.9-1.13-6.28-2.91-7.67" transform="translate(-74.34 -56.55)"></path><path class="cls-logo-2" d="M169,56.55V69.35c-1.38-1.12-3.34-1.7-6.23-1.7-2.55,0-5,.3-6.9,1.6s-3.07,3.6-3.07,7.46c0,0,0,0,0,.05v8.5c0,3.24.76,5.64,2.38,7.22s4.07,2.32,7.39,2.32h1.25A6.09,6.09,0,0,0,169.45,92v2.46h5.12V56.55ZM158.3,79.14c0-3.45.2-5.82,4.27-5.85,5.4,0,6.43,1.49,6.47,4.37v5.27c0,5.88-3.82,6.4-5.73,6.43-3.06,0-5-.25-5-4.1Z" transform="translate(-74.34 -56.55)"></path><path class="cls-logo-2" d="M217.41,86.27a7.47,7.47,0,0,0-3.35-6.64,12.62,12.62,0,0,0-5.15-1.3l-1.57-.07c-5-.12-5.42-1.41-5.46-2.62v0a2.1,2.1,0,0,1,.64-1.41c.83-.73,2.11-.71,3.76-.73h9.18V68h-9.35c-6.94,0-9.51,3.63-9.55,7.05v.23c0,3.71,1.23,5.12,2.47,6.08,2,1.56,5.12,2.05,9.82,2.18a4.8,4.8,0,0,1,2.33.68,2.24,2.24,0,0,1,.95,1.94,2.57,2.57,0,0,1,0,.31c-.22,2.26-1.59,2.41-4.27,2.44H197.48v5.51h11.09A10.64,10.64,0,0,0,214,93.06a7.46,7.46,0,0,0,3.46-6.74Z" transform="translate(-74.34 -56.55)"></path><path class="cls-logo-2" d="M190.44,68V94.39h-5.58V73.45H181V68Zm-6.24-3.11h6.2V59.57h-6.2Z" transform="translate(-74.34 -56.55)"></path><path class="cls-logo-2" d="M83.22,88.85c-1.38,0-3.12-.24-3.12-2.16V59.57H74.4V86.83c0,4.86,3.05,7.59,8.11,7.6h9.92V88.85Z" transform="translate(-74.34 -56.55)"></path><path class="cls-logo-2" d="M319.15,68.41c-2.95,0-4.79.84-6.28,3.16V68.7h-5V94.45h5.37V79.6c0-5.13,3-5.62,6-5.66h1.5V68.41Z" transform="translate(-74.34 -56.55)"></path><path class="cls-logo-2" d="M298.8,68.45l-5.41,20-6.82-20H281l8.56,25.81H292l-.88,3.2c-.5,1.43-2.15,2.68-4.78,2.69H284v5.48h2.38c4.75,0,7.49-1.72,9-5.18a54,54,0,0,0,1.69-5.7l.89-3.28C298,91.25,304,69,304,68.87v-.45Z" transform="translate(-74.34 -56.55)"></path><path class="cls-logo-2" d="M267.45,74v5.41h6.22v8.27c-1.75,1.42-2.67,1.7-6,1.71h-.14c-2.49,0-3.59-.58-4.53-1.49a4.17,4.17,0,0,1-1.06-3.13V70.49c0-1.64.26-2.76,1-3.48a4.63,4.63,0,0,1,3.39-1l1.23,0h7.82V60.49h-7.65c-2.79,0-5.63.31-7.79,1.7s-3.62,3.87-3.62,8.06v15c0,8.35,6.66,9.44,11.89,9.45h.1c6.31,0,8.09-1.58,10.81-4.63l.05,0,0-16Z" transform="translate(-74.34 -56.55)"></path><path class="cls-logo-3" d="M75.93,106.67v1.52h0A4,4,0,0,1,81,106.82a2.27,2.27,0,0,1,1.1,1.36,3.55,3.55,0,0,1,1.37-1.3,3.86,3.86,0,0,1,1.86-.46,5.3,5.3,0,0,1,1.4.17,2.85,2.85,0,0,1,1.08.53,2.41,2.41,0,0,1,.7.93,3.43,3.43,0,0,1,.25,1.37V117H87.1v-6.76a5.06,5.06,0,0,0-.08-.9,1.86,1.86,0,0,0-.3-.73,1.56,1.56,0,0,0-.61-.49,2.36,2.36,0,0,0-1-.18,2.68,2.68,0,0,0-2,.72,2.58,2.58,0,0,0-.72,1.91V117H80.72v-6.76a4.59,4.59,0,0,0-.09-.92,2,2,0,0,0-.31-.73,1.45,1.45,0,0,0-.59-.48,2.36,2.36,0,0,0-.95-.17,2.56,2.56,0,0,0-1.27.3,2.74,2.74,0,0,0-.85.72,3,3,0,0,0-.48.87,2.49,2.49,0,0,0-.15.75V117H74.34V106.67" transform="translate(-74.34 -56.55)"></path><path class="cls-logo-3" d="M97,112c-.35.07-.71.14-1.09.18l-1.15.16a4.3,4.3,0,0,0-1,.29,1.86,1.86,0,0,0-.75.57,1.61,1.61,0,0,0-.29,1,1.33,1.33,0,0,0,.18.71,1.38,1.38,0,0,0,.43.47,1.94,1.94,0,0,0,.64.26,3.52,3.52,0,0,0,.75.08,4.09,4.09,0,0,0,1.43-.23,3,3,0,0,0,1-.58,2.28,2.28,0,0,0,.56-.76,2,2,0,0,0,.18-.77v-1.74A2,2,0,0,1,97,112m2.37,5.2a1.48,1.48,0,0,1-1-.37,1.64,1.64,0,0,1-.39-1.21,4,4,0,0,1-1.62,1.21,5.47,5.47,0,0,1-2,.37A5.32,5.32,0,0,1,93,117a2.88,2.88,0,0,1-1.09-.5,2.39,2.39,0,0,1-.73-.89,3.47,3.47,0,0,1,0-2.76A2.6,2.6,0,0,1,92,112a3.67,3.67,0,0,1,1.12-.53c.41-.12.84-.21,1.28-.3s.91-.16,1.32-.21a7.32,7.32,0,0,0,1.11-.2,1.81,1.81,0,0,0,.76-.38.92.92,0,0,0,.28-.73,1.68,1.68,0,0,0-.21-.9,1.43,1.43,0,0,0-.54-.51,2.21,2.21,0,0,0-.74-.24,5.57,5.57,0,0,0-.81-.06,3.58,3.58,0,0,0-1.79.41,1.73,1.73,0,0,0-.78,1.54H91.28a3.58,3.58,0,0,1,.4-1.61,3,3,0,0,1,1-1.07A4.15,4.15,0,0,1,94,106.6a7.26,7.26,0,0,1,1.63-.18,9.35,9.35,0,0,1,1.39.1,3.55,3.55,0,0,1,1.25.41,2.41,2.41,0,0,1,.9.87,2.75,2.75,0,0,1,.34,1.45v5.3a4.23,4.23,0,0,0,.07.88c0,.18.21.28.47.28a1.64,1.64,0,0,0,.52-.1v1.32a2.51,2.51,0,0,1-1.22.26" transform="translate(-74.34 -56.55)"></path><path class="cls-logo-3" d="M104.2,106.67v1.63h0a3.57,3.57,0,0,1,3.35-1.87,4.5,4.5,0,0,1,1.7.27,2.85,2.85,0,0,1,1.1.78,2.92,2.92,0,0,1,.59,1.19,6.35,6.35,0,0,1,.17,1.53V117h-1.69v-7a2.05,2.05,0,0,0-.56-1.52,2.08,2.08,0,0,0-1.54-.56,3.46,3.46,0,0,0-1.35.24,2.58,2.58,0,0,0-.95.68,2.94,2.94,0,0,0-.57,1,4.18,4.18,0,0,0-.19,1.29V117h-1.69V106.67" transform="translate(-74.34 -56.55)"></path><path class="cls-logo-3" d="M119.41,112c-.35.07-.71.14-1.09.18l-1.15.16a4.35,4.35,0,0,0-1,.29,1.86,1.86,0,0,0-.75.57,1.61,1.61,0,0,0-.29,1,1.34,1.34,0,0,0,.61,1.18,1.81,1.81,0,0,0,.64.26,3.49,3.49,0,0,0,.75.08,4.09,4.09,0,0,0,1.44-.23,3,3,0,0,0,1-.58,2.27,2.27,0,0,0,.56-.76,1.89,1.89,0,0,0,.18-.77v-1.74a2,2,0,0,1-.84.35m2.37,5.2a1.45,1.45,0,0,1-1-.37,1.6,1.6,0,0,1-.39-1.21,4.13,4.13,0,0,1-1.62,1.21,5.44,5.44,0,0,1-2,.37,5.3,5.3,0,0,1-1.32-.15,2.84,2.84,0,0,1-1.09-.5,2.36,2.36,0,0,1-.74-.89,3.46,3.46,0,0,1,0-2.76,2.61,2.61,0,0,1,.79-.91,3.73,3.73,0,0,1,1.11-.53c.42-.12.85-.21,1.29-.3s.9-.16,1.32-.21a7.24,7.24,0,0,0,1.1-.2,1.91,1.91,0,0,0,.76-.38.94.94,0,0,0,.28-.73,1.71,1.71,0,0,0-.21-.9,1.48,1.48,0,0,0-.54-.51,2.21,2.21,0,0,0-.74-.24,5.49,5.49,0,0,0-.81-.06,3.58,3.58,0,0,0-1.79.41,1.72,1.72,0,0,0-.78,1.54h-1.69a3.62,3.62,0,0,1,.4-1.61,3,3,0,0,1,1-1.07,4.09,4.09,0,0,1,1.38-.59,7.29,7.29,0,0,1,1.63-.18,9.17,9.17,0,0,1,1.38.1,3.52,3.52,0,0,1,1.25.41,2.38,2.38,0,0,1,.9.87,2.71,2.71,0,0,1,.34,1.45v5.3a4,4,0,0,0,.07.88c0,.18.2.28.47.28a1.63,1.63,0,0,0,.52-.1v1.32a2.48,2.48,0,0,1-1.22.26" transform="translate(-74.34 -56.55)"></path><path class="cls-logo-3" d="M130.61,115.25a2.79,2.79,0,0,0,.95-.92,4.19,4.19,0,0,0,.53-1.29,6.17,6.17,0,0,0,.17-1.44,5.35,5.35,0,0,0-.16-1.33,3.81,3.81,0,0,0-.5-1.19,2.72,2.72,0,0,0-.91-.85,2.75,2.75,0,0,0-1.36-.32,2.94,2.94,0,0,0-1.39.31,2.69,2.69,0,0,0-.94.83,3.37,3.37,0,0,0-.54,1.19,5.79,5.79,0,0,0-.17,1.42,7.21,7.21,0,0,0,.14,1.4,4.08,4.08,0,0,0,.48,1.27,2.71,2.71,0,0,0,.9.92,2.61,2.61,0,0,0,1.4.35,2.75,2.75,0,0,0,1.43-.35m2.16,4.63a4.7,4.7,0,0,1-3.63,1.26,6.81,6.81,0,0,1-1.47-.16,4.47,4.47,0,0,1-1.36-.52,3.27,3.27,0,0,1-1-.94,2.74,2.74,0,0,1-.44-1.42h1.69a1.23,1.23,0,0,0,.28.78,2.16,2.16,0,0,0,.66.52,3.38,3.38,0,0,0,.84.29,5.14,5.14,0,0,0,.88.09,3.18,3.18,0,0,0,1.42-.29,2.64,2.64,0,0,0,1-.8,3.29,3.29,0,0,0,.55-1.22,6.81,6.81,0,0,0,.17-1.57v-.68h0a2.85,2.85,0,0,1-1.33,1.4,4,4,0,0,1-1.88.45,4.53,4.53,0,0,1-2-.42,4.28,4.28,0,0,1-1.44-1.13,4.77,4.77,0,0,1-.87-1.66,6.77,6.77,0,0,1-.29-2,7.85,7.85,0,0,1,.24-1.89,5.15,5.15,0,0,1,.8-1.75,4.37,4.37,0,0,1,1.48-1.29,4.6,4.6,0,0,1,2.25-.51,3.77,3.77,0,0,1,1.79.43,3,3,0,0,1,1.27,1.28h0v-1.48h1.59v9.42a5.42,5.42,0,0,1-1.16,3.79" transform="translate(-74.34 -56.55)"></path><path class="cls-logo-3" d="M143.44,109.7a2.93,2.93,0,0,0-.62-.93,3,3,0,0,0-.92-.62,2.9,2.9,0,0,0-1.17-.23,2.93,2.93,0,0,0-1.19.23,2.82,2.82,0,0,0-.91.63,3.18,3.18,0,0,0-.6.93,3.73,3.73,0,0,0-.26,1.13h5.94a3.59,3.59,0,0,0-.27-1.14m.41,6.61a4.68,4.68,0,0,1-2.91.88,5.38,5.38,0,0,1-2.15-.4,4.29,4.29,0,0,1-1.53-1.11,4.9,4.9,0,0,1-.93-1.72,8.41,8.41,0,0,1-.34-2.17,6.23,6.23,0,0,1,.36-2.15,5.12,5.12,0,0,1,1-1.69,4.55,4.55,0,0,1,1.53-1.12,4.71,4.71,0,0,1,1.94-.39,4.22,4.22,0,0,1,2.28.57,4.51,4.51,0,0,1,1.46,1.44,5.68,5.68,0,0,1,.76,1.92,8.54,8.54,0,0,1,.17,2h-7.73a4.18,4.18,0,0,0,.17,1.28,2.89,2.89,0,0,0,.58,1.07,2.85,2.85,0,0,0,1,.74,3.6,3.6,0,0,0,1.46.28,3,3,0,0,0,1.77-.5,2.4,2.4,0,0,0,.91-1.52h1.67a4.12,4.12,0,0,1-1.5,2.62" transform="translate(-74.34 -56.55)"></path><path class="cls-logo-3" d="M160.6,109.7a2.83,2.83,0,0,0-.62-.93,3.14,3.14,0,0,0-.92-.62,2.91,2.91,0,0,0-1.17-.23,3,3,0,0,0-1.19.23,2.89,2.89,0,0,0-.91.63,3.07,3.07,0,0,0-.59.93,3.35,3.35,0,0,0-.26,1.13h5.93a3.48,3.48,0,0,0-.27-1.14m.42,6.61a4.69,4.69,0,0,1-2.91.88,5.39,5.39,0,0,1-2.15-.4,4.31,4.31,0,0,1-1.53-1.11,4.77,4.77,0,0,1-.92-1.72,8.11,8.11,0,0,1-.35-2.17,6,6,0,0,1,.36-2.15,5.08,5.08,0,0,1,1-1.69,4.56,4.56,0,0,1,1.54-1.12,4.65,4.65,0,0,1,1.94-.39,4.21,4.21,0,0,1,2.28.57,4.62,4.62,0,0,1,1.46,1.44,5.84,5.84,0,0,1,.76,1.92,8.68,8.68,0,0,1,.16,2h-7.72a4,4,0,0,0,.16,1.28,2.8,2.8,0,0,0,1.6,1.82,3.57,3.57,0,0,0,1.46.28,3,3,0,0,0,1.76-.5,2.39,2.39,0,0,0,.91-1.52h1.68a4.13,4.13,0,0,1-1.5,2.62" transform="translate(-74.34 -56.55)"></path><path class="cls-logo-3" d="M166.46,106.67v1.63h0a3.57,3.57,0,0,1,3.35-1.87,4.49,4.49,0,0,1,1.7.27,2.8,2.8,0,0,1,1.1.78,2.9,2.9,0,0,1,.59,1.19,6.35,6.35,0,0,1,.17,1.53V117h-1.69v-7a2,2,0,0,0-.56-1.52,2.07,2.07,0,0,0-1.53-.56,3.45,3.45,0,0,0-1.35.24,2.51,2.51,0,0,0-.95.68,2.86,2.86,0,0,0-.57,1,4.23,4.23,0,0,0-.19,1.29V117h-1.69V106.67" transform="translate(-74.34 -56.55)"></path><path class="cls-logo-3" d="M182.95,109.7a2.86,2.86,0,0,0-.62-.93,3,3,0,0,0-.92-.62,3.15,3.15,0,0,0-2.36,0,2.83,2.83,0,0,0-.91.63,3.09,3.09,0,0,0-.6.93,3.53,3.53,0,0,0-.26,1.13h5.93a3.44,3.44,0,0,0-.27-1.14m.42,6.61a4.71,4.71,0,0,1-2.92.88,5.38,5.38,0,0,1-2.14-.4,4.25,4.25,0,0,1-1.53-1.11,4.91,4.91,0,0,1-.93-1.72,8.05,8.05,0,0,1-.34-2.17,6.16,6.16,0,0,1,.36-2.15,5.07,5.07,0,0,1,1-1.69,4.51,4.51,0,0,1,1.53-1.12,4.7,4.7,0,0,1,1.95-.39,4.23,4.23,0,0,1,2.28.57,4.57,4.57,0,0,1,1.46,1.44,5.77,5.77,0,0,1,.76,1.92,8,8,0,0,1,.17,2h-7.72a4,4,0,0,0,.16,1.28,3.06,3.06,0,0,0,.57,1.07,2.91,2.91,0,0,0,1,.74,3.57,3.57,0,0,0,1.45.28,3,3,0,0,0,1.78-.5,2.4,2.4,0,0,0,.91-1.52h1.68a4.15,4.15,0,0,1-1.49,2.62" transform="translate(-74.34 -56.55)"></path><path class="cls-logo-3" d="M188.74,106.67v2.17h0a4.66,4.66,0,0,1,1.52-1.86,3.86,3.86,0,0,1,2.28-.55v1.79a4.78,4.78,0,0,0-1.74.28,2.7,2.7,0,0,0-1.15.82,3.41,3.41,0,0,0-.64,1.3,7.27,7.27,0,0,0-.19,1.76V117h-1.69V106.67" transform="translate(-74.34 -56.55)"></path><path class="cls-logo-3" d="M199.32,115.25a2.78,2.78,0,0,0,.95-.92,4.41,4.41,0,0,0,.53-1.29,6.33,6.33,0,0,0,.17-1.44,6.11,6.11,0,0,0-.16-1.33,3.73,3.73,0,0,0-.52-1.19,2.63,2.63,0,0,0-.91-.85,2.73,2.73,0,0,0-1.35-.32,2.93,2.93,0,0,0-1.4.31,2.67,2.67,0,0,0-.95.83,3.42,3.42,0,0,0-.54,1.19,5.72,5.72,0,0,0-.17,1.42,7.1,7.1,0,0,0,.14,1.4,3.94,3.94,0,0,0,.48,1.27,2.73,2.73,0,0,0,.9.92,2.59,2.59,0,0,0,1.39.35,2.75,2.75,0,0,0,1.43-.35m2.16,4.63a4.73,4.73,0,0,1-3.63,1.26,6.81,6.81,0,0,1-1.47-.16,4.54,4.54,0,0,1-1.36-.52,3.3,3.3,0,0,1-1-.94,2.71,2.71,0,0,1-.44-1.42h1.69a1.26,1.26,0,0,0,.29.78,2.18,2.18,0,0,0,.66.52,3.46,3.46,0,0,0,.85.29,5,5,0,0,0,.88.09,3.21,3.21,0,0,0,1.42-.29,2.73,2.73,0,0,0,1-.8,3.3,3.3,0,0,0,.55-1.22,6.72,6.72,0,0,0,.17-1.57v-.68h0a2.82,2.82,0,0,1-1.33,1.4,4.05,4.05,0,0,1-1.88.45,4.57,4.57,0,0,1-2-.42,4.25,4.25,0,0,1-1.44-1.13,4.74,4.74,0,0,1-.86-1.66,6.63,6.63,0,0,1-.29-2,7.78,7.78,0,0,1,.24-1.89,5,5,0,0,1,.8-1.75,4.35,4.35,0,0,1,1.48-1.29,4.59,4.59,0,0,1,2.25-.51,3.73,3.73,0,0,1,1.79.43,3,3,0,0,1,1.28,1.28h0v-1.48h1.58v9.42a5.44,5.44,0,0,1-1.15,3.79" transform="translate(-74.34 -56.55)"></path><path class="cls-logo-3" d="M209.11,119.61a3.43,3.43,0,0,1-.64.85,2.16,2.16,0,0,1-.76.47,2.93,2.93,0,0,1-1,.15,3.77,3.77,0,0,1-.6,0,2.84,2.84,0,0,1-.58-.14v-1.56l.49.16a1.93,1.93,0,0,0,.51.08,1.34,1.34,0,0,0,.84-.24,1.93,1.93,0,0,0,.56-.69l.7-1.74-4.09-10.25h1.92l3,8.44h0l2.89-8.44h1.79l-4.49,11.67a10.79,10.79,0,0,1-.59,1.28" transform="translate(-74.34 -56.55)"></path><path class="cls-logo-3" d="M229.93,110.32a3.83,3.83,0,0,0-.58-1.22,2.83,2.83,0,0,0-1-.86,3.09,3.09,0,0,0-1.42-.32,2.91,2.91,0,0,0-1.46.34,3,3,0,0,0-1,.89,3.76,3.76,0,0,0-.54,1.24,5.87,5.87,0,0,0-.17,1.41,6,6,0,0,0,.18,1.47,3.64,3.64,0,0,0,.57,1.24,3,3,0,0,0,1,.87,3.25,3.25,0,0,0,1.5.32,2.91,2.91,0,0,0,1.46-.34,2.75,2.75,0,0,0,.95-.89,4,4,0,0,0,.52-1.28,6.71,6.71,0,0,0,.16-1.47,5.29,5.29,0,0,0-.19-1.41m-6.09-7.58v5.33h0a2.52,2.52,0,0,1,1.31-1.25,5,5,0,0,1,2-.39,4.6,4.6,0,0,1,2.08.44,4.22,4.22,0,0,1,1.47,1.19,5.27,5.27,0,0,1,.89,1.72,6.92,6.92,0,0,1,.3,2.07,7.08,7.08,0,0,1-.29,2.07,4.85,4.85,0,0,1-.88,1.7,4.15,4.15,0,0,1-1.47,1.14,4.81,4.81,0,0,1-2.06.42,4.47,4.47,0,0,1-.85-.08,4.55,4.55,0,0,1-.92-.25,3.62,3.62,0,0,1-.88-.49,2.77,2.77,0,0,1-.68-.77h0V117h-1.69V102.74" transform="translate(-74.34 -56.55)"></path><path class="cls-logo-3" d="M241,109.7a2.84,2.84,0,0,0-.62-.93,3.09,3.09,0,0,0-.92-.62,2.89,2.89,0,0,0-1.17-.23,3,3,0,0,0-1.19.23,2.83,2.83,0,0,0-.91.63,3.08,3.08,0,0,0-.6.93,3.53,3.53,0,0,0-.26,1.13h5.94a3.63,3.63,0,0,0-.27-1.14m.41,6.61a4.67,4.67,0,0,1-2.91.88,5.36,5.36,0,0,1-2.15-.4,4.33,4.33,0,0,1-1.53-1.11,4.79,4.79,0,0,1-.93-1.72,8.34,8.34,0,0,1-.35-2.17,6.1,6.1,0,0,1,.36-2.15,5.08,5.08,0,0,1,1-1.69,4.59,4.59,0,0,1,1.54-1.12,4.72,4.72,0,0,1,1.94-.39,4.23,4.23,0,0,1,2.29.57,4.48,4.48,0,0,1,1.46,1.44,5.8,5.8,0,0,1,.76,1.92,8.3,8.3,0,0,1,.17,2h-7.72a4.22,4.22,0,0,0,.16,1.28,3,3,0,0,0,.58,1.07,2.85,2.85,0,0,0,1,.74,3.54,3.54,0,0,0,1.45.28,3,3,0,0,0,1.78-.5,2.41,2.41,0,0,0,.91-1.52h1.68a4.12,4.12,0,0,1-1.5,2.62" transform="translate(-74.34 -56.55)"></path><path class="cls-logo-3" d="M249.48,106.66v1.49h-2.07v6.41a2.12,2.12,0,0,0,.05.48.49.49,0,0,0,.19.28.82.82,0,0,0,.39.13,5.35,5.35,0,0,0,.65,0h.78V117h-1.3a6.12,6.12,0,0,1-1.13-.09,1.66,1.66,0,0,1-.76-.33,1.36,1.36,0,0,1-.43-.67,4,4,0,0,1-.14-1.16v-6.57H244v-1.49h1.76v-3.09h1.68v3.09" transform="translate(-74.34 -56.55)"></path><path class="cls-logo-3" d="M256.22,106.66v1.49h-2.07v6.41a1.77,1.77,0,0,0,.05.48.5.5,0,0,0,.19.28.84.84,0,0,0,.39.13,5.43,5.43,0,0,0,.65,0h.78V117h-1.3a6.15,6.15,0,0,1-1.13-.09,1.69,1.69,0,0,1-.76-.33,1.39,1.39,0,0,1-.42-.67,3.93,3.93,0,0,1-.14-1.16v-6.57h-1.75v-1.49h1.75v-3.09h1.69v3.09" transform="translate(-74.34 -56.55)"></path><path class="cls-logo-3" d="M265.17,109.7a2.83,2.83,0,0,0-.62-.93,3,3,0,0,0-.91-.62,2.9,2.9,0,0,0-1.17-.23,3,3,0,0,0-1.19.23,2.82,2.82,0,0,0-.91.63,3.18,3.18,0,0,0-.6.93,3.64,3.64,0,0,0-.26,1.13h5.94a3.52,3.52,0,0,0-.27-1.14m.41,6.61a4.69,4.69,0,0,1-2.91.88,5.37,5.37,0,0,1-2.15-.4,4.26,4.26,0,0,1-1.53-1.11,4.73,4.73,0,0,1-.93-1.72,8.11,8.11,0,0,1-.35-2.17,6.1,6.1,0,0,1,.36-2.15,5.25,5.25,0,0,1,1-1.69,4.57,4.57,0,0,1,3.48-1.51,4.21,4.21,0,0,1,2.28.57,4.52,4.52,0,0,1,1.46,1.44,5.7,5.7,0,0,1,.76,1.92,8.47,8.47,0,0,1,.17,2h-7.72a3.82,3.82,0,0,0,.16,1.28,2.86,2.86,0,0,0,.58,1.07,2.78,2.78,0,0,0,1,.74,3.56,3.56,0,0,0,1.46.28,3,3,0,0,0,1.77-.5,2.38,2.38,0,0,0,.91-1.52h1.68a4.11,4.11,0,0,1-1.5,2.62" transform="translate(-74.34 -56.55)"></path><path class="cls-logo-3" d="M271,106.67v2.17h0a4.62,4.62,0,0,1,1.52-1.86,3.83,3.83,0,0,1,2.27-.55v1.79a4.77,4.77,0,0,0-1.74.28,2.69,2.69,0,0,0-1.16.82,3.23,3.23,0,0,0-.63,1.3,6.83,6.83,0,0,0-.21,1.76V117h-1.69V106.67" transform="translate(-74.34 -56.55)"></path></svg>